<svg xmlns="http://www.w3.org/2000/svg" viewBox="0 0 128 128"><g><path d="M96.667 15.85h-.195c-.494.002-.986.002-1.477.019-5.182.087-10.214 1.243-14.964 3.229-5.09 2.145-8.582 5.35-13.106 8.228-.853.545-1.887.815-2.921.815-1.039 0-2.077-.272-2.931-.815-4.524-2.878-8.016-6.083-13.108-8.228-4.753-1.986-9.78-3.143-14.962-3.229-.492-.017-.983-.017-1.475-.019h-.195c-13.123 0-22.688 7.536-28.296 20.649C.641 42.078.598 50.482 1.579 56.343c.976 5.837 3.413 11.11 6.717 16.032 11.028 16.429 30.709 24.047 44.894 37.286 1.513 1.415 3.008 2.938 4.55 4.355 1.644 1.513 3.625 4.986 6.259 5.148 2.634-.161 4.615-3.634 6.259-5.148 1.542-1.417 3.034-2.94 4.55-4.355 14.188-13.238 33.864-20.857 44.894-37.286 3.307-4.921 5.738-10.194 6.719-16.032.979-5.861.935-14.265-1.461-19.844-5.61-13.113-15.173-20.649-28.293-20.649z" fill="#fff"/></g></svg>