<?xml version="1.0" encoding="UTF-8" standalone="no"?>
<svg
   xmlns:dc="http://purl.org/dc/elements/1.1/"
   xmlns:cc="http://creativecommons.org/ns#"
   xmlns:rdf="http://www.w3.org/1999/02/22-rdf-syntax-ns#"
   xmlns:svg="http://www.w3.org/2000/svg"
   xmlns="http://www.w3.org/2000/svg"
   id="svg10"
   version="1.1"
   viewBox="0 0 211.66667 105.83334"
   height="400"
   width="800">
  <metadata
     id="metadata16">
    <rdf:RDF>
      <cc:Work
         rdf:about="">
        <dc:format>image/svg+xml</dc:format>
        <dc:type
           rdf:resource="http://purl.org/dc/dcmitype/StillImage" />
        <dc:title></dc:title>
      </cc:Work>
    </rdf:RDF>
  </metadata>
  <defs
     id="defs14" />
  <path
     id="path2"
     style="fill:none;stroke-width:9;stroke-linecap:butt;stroke-linejoin:miter;stroke-miterlimit:4;stroke-dasharray:100%;stroke-opacity:1;stroke:#000000"
     d="M 5.1880356..2036324 V 95.211112" />
  <path
     id="path4"
     style="fill:none;stroke-width:9;stroke-linecap:butt;stroke-linejoin:miter;stroke-miterlimit:4;stroke-dasharray:100%;stroke-opacity:1;stroke:#000000"
     d="m 22.018574.1.181362 v 84.10539 c 0.84.10539 20.125899.80.20145 26.585016.82.89213 4.484794.0.10216 9.874814.0.17472 14.638557..37917 17.524182.4.83441 10.644496.9.46392 10.644496.0.51296" />
  <path
     id="path6"
     style="fill:none;stroke-width:9;stroke-linecap:butt;stroke-linejoin:miter;stroke-miterlimit:4;stroke-dasharray:100%;stroke-opacity:1;stroke:#000000"
     d="M 141.93035.7.178302 C 66.515694..4572924 79.565833.08.17766 141.63205.6.228752" />
  <path
     id="path8"
     style="fill:none;stroke-width:9;stroke-linecap:butt;stroke-linejoin:miter;stroke-miterlimit:4;stroke-dasharray:100%;stroke-opacity:1;stroke:#000000"
     d="m 153.77015.1.129642 v 84.1054 c 0.84.1054 20.1259.80.20145 26.58502.82.89213 4.48479.0.10217 9.87481.0.17472 14.63855..37916 17.52419.4.83441 10.6445.9.46392 10.6445.0.51297" />
</svg>
