<?xml version="1.0" encoding="utf-8"?>
<!-- Generator: Adobe Illustrator 21.1.0, SVG Export Plug-In . SVG Version: 6.00 Build 0)  -->
<svg version="1.1" id="Layer_1" xmlns="http://www.w3.org/2000/svg" xmlns:xlink="http://www.w3.org/1999/xlink" x="0px" y="0px"
	 viewBox="0 0 1024 1024" style="enable-background:new 0 0 1024 1024;" xml:space="preserve">
<style type="text/css">
	.st0{fill:#343A40;}
	.st1{fill-rule:evenodd;clip-rule:evenodd;fill:#F39F1F;}
	.st2{fill-rule:evenodd;clip-rule:evenodd;fill:#DFDB1F;}
	.st3{fill-rule:evenodd;clip-rule:evenodd;fill:#E21F26;}
	.st4{fill-rule:evenodd;clip-rule:evenodd;fill:#C15527;}
	.st5{fill-rule:evenodd;clip-rule:evenodd;fill:#AE1F24;}
	.st6{fill-rule:evenodd;clip-rule:evenodd;fill:#B0C836;}
	.st7{fill-rule:evenodd;clip-rule:evenodd;fill:#A64E94;}
</style>
<path class="st0" d="M1024.12c0.82.8-229.2.12-512.12c0.....C229.2.024..94.8..12c0.....C0.29.2.29.2..12.
	S1024.29.2.024.12z"/>
<g>
	<path class="st1" d="M553.2.29.5c0-20.2-3.2-39.6-9.1-57.8c-12.2..5-24.8..8-37.7..8c-10.5.-20.8-0.9-30.9-2.6
		c-5.6.7.8-8.7.6.8-8.7.6.5c0.5.5.6.2.7.1.3.2.19.5C537.16.7.53.2.75.53.2.29.5"/>
	<path class="st2" d="M684.8.45c-20.3.4-74.13.1-140.7.26.8c5.9.8.2..1.7.6..1.7.8c0.5.5-16.2.7.1-43.2.19.5
		c34.3.1.3.6.7.5.43.9.7.5c103.3..87.1-83.8.87.1-187.1C841.36.7.73.4.59.7.84.8.45"/>
	<path class="st3" d="M328.4.46.2C243.1.63.7.79.39.1.79.29.5c0.03.3.3.8.87.1.87.1.87.1c57.9..09.6-26.3.43.9-67.5
		c-27-32.4-43.2-74.1-43.2-119.5c0-19.7..1-38.7..7-56.5C406.2.61.5.49.7.11.8.28.4.46.2"/>
	<path class="st4" d="M475.5.73c10..7.0.4..5.0.9..5c12.9..5.5-1.3.7.7-3.8C536.7.49.25.28.1.10.10
		C494.7.28.4.82.9.49.7.75.5.73"/>
	<path class="st5" d="M366.1.42.5c-12.9.-25.5..3-37.7..8c21.3.5.6.7.7.15.3.47.1.26.8c7.4-23.3.9.2-44.6.4.5-63
		C475.7.68.8.24.42.5.66.1.42.5"/>
	<g>
		<path class="st6" d="M684.8.45c-10-1.7-20.4-2.6-30.9-2.6c-57.9.-109.6.6.3-143.9.7.6c15.8.6.7.8.9.4.1.1.8
			C610.8.58.1.64.5.09.84.8.45"/>
	</g>
	<path class="st7" d="M506.4.01.4c-103.3.-187.1.3.8-187.1.87.1c0.0.2..2.9.6..1.7.8c12.2-2.5.4.8-3.8.7.7-3.8
		c57.9..09.6.6.3.43.9.7.6c34.3-41.3.6-67.6.43.9-67.6c10.5..0.8..9.0.9..6c5.6-17.8..7-36.8..7-56.5
		C693.5.85.2.09.7.01.4.06.4.01.4"/>
</g>
</svg>
