<?xml version="1.0" encoding="UTF-8" standalone="no"?>
<svg
   xmlns:dc="http://purl.org/dc/elements/1.1/"
   xmlns:cc="http://creativecommons.org/ns#"
   xmlns:rdf="http://www.w3.org/1999/02/22-rdf-syntax-ns#"
   xmlns:svg="http://www.w3.org/2000/svg"
   xmlns="http://www.w3.org/2000/svg"
   id="svg6"
   version="1.1"
   focusable="false"
   role="img"
   viewBox="0 0 576 512">
  <metadata
     id="metadata12">
    <rdf:RDF>
      <cc:Work
         rdf:about="">
        <dc:format>image/svg+xml</dc:format>
        <dc:type
           rdf:resource="http://purl.org/dc/dcmitype/StillImage" />
        <dc:title></dc:title>
      </cc:Work>
    </rdf:RDF>
  </metadata>
  <defs
     id="defs10" />
  <path
     id="path2"
     d="m 192,96 c -88.426,0 -160,71.561 -160,160 0,88.426 71.561,160 160,160 H 384 C 472.426,416 544,344.439 544,256 544,167.575 472.439,96 384,96 H 192 m 0,-32 h 192 c 106.039,0 192,85.961 192,192 0,106.039 -85.961,192 -192,192 H 192 C 85.961,448 0,362.039 0,256 0,149.961 85.961,64 192,64 Z m 0,304 C 130.144,368 80,317.856 80,256 c 0,-61.856 50.144,-112 112,-112 61.856,0 112,50.144 112,112 0,28.404 -10.574,54.339 -27.999,74.082 C 255.478,353.335 225.452,368 192,368 Z"
     style="fill:#000000;fill-opacity:0.54773867" />
  <path
     id="path4"
     style="fill:#000000;fill-opacity:0.54773867;stroke-width:2.16949153"
     d="M 407.20341,0.15"
     class="--color" />
</svg>
